<svg version="1.1" id="Layer_1" xmlns="http://www.w3.org/2000/svg" xmlns:xlink="http://www.w3.org/1999/xlink" x="0px" y="0px"
	 width="100%" viewBox="0 0 500 500" enable-background="new 0 0 500 500" xml:space="preserve">
<path fill="#FFFFFF" opacity="1.000000" stroke="none" 
	d="
M462.000000,501.000000 
	C308.000031,501.000000 154.500076,501.000000 1.000082,501.000000 
	C1.000055,334.333405 1.000055,167.666824 1.000027,1.000172 
	C167.666550,1.000115 334.333099,1.000115 500.999756,1.000057 
	C500.999817,167.666519 500.999817,334.333038 500.999908,500.999756 
	C488.166656,501.000000 475.333344,501.000000 462.000000,501.000000 
M173.019028,263.319427 
	C173.449814,267.422882 176.358551,268.217987 183.889282,266.139191 
	C183.889282,256.292847 183.889282,246.367615 183.889282,236.442383 
	C184.112350,236.403564 184.335419,236.364761 184.558487,236.325943 
	C187.473404,246.446991 190.388336,256.568024 193.341339,266.821350 
	C197.127853,266.821350 200.757477,266.821350 204.712204,266.821350 
	C207.560074,256.923615 210.417664,246.992081 213.275253,237.060577 
	C213.642334,237.110504 214.009430,237.160431 214.376526,237.210358 
	C214.376526,247.064301 214.376526,256.918213 214.376526,266.750244 
	C218.210495,266.750244 221.471649,266.750244 224.794006,266.750244 
	C224.794006,251.098373 224.794006,235.710281 224.794006,220.282074 
	C219.286423,220.282074 214.053482,220.282074 208.687820,220.282074 
	C205.659363,231.950912 202.692947,243.380722 199.726517,254.810532 
	C199.425735,254.814957 199.124969,254.819382 198.824188,254.823822 
	C195.791626,243.210739 192.759064,231.597656 189.795181,220.247528 
	C183.907776,220.247528 178.640961,220.247528 173.018951,220.247528 
	C173.018951,234.454666 173.018951,248.404785 173.019028,263.319427 
M147.392105,264.894073 
	C152.937759,259.363770 158.478897,253.828949 164.031097,248.305237 
	C166.556992,245.792282 167.872101,242.709015 165.206543,239.926834 
	C157.373367,231.750870 149.295685,223.802902 141.139603,215.946472 
	C138.782669,213.676117 135.759964,213.954315 133.514893,216.320267 
	C131.196045,218.763992 131.622437,221.500381 133.834610,223.923599 
	C135.181625,225.399094 136.629456,226.782364 138.026886,228.212067 
	C140.866669,231.117416 143.702972,234.026169 147.391830,237.805527 
	C140.554596,237.805527 135.081894,237.893539 129.613602,237.776276 
	C125.601479,237.690247 122.330193,238.868256 122.324181,243.313736 
	C122.318352,247.627838 125.365837,249.130478 129.475479,249.041275 
	C135.185074,248.917313 140.899368,249.010101 147.959045,249.010101 
	C142.525864,254.315170 138.043808,258.517334 133.775436,262.926361 
	C131.326340,265.456207 131.260757,268.406006 133.922134,270.872406 
	C136.390930,273.160339 139.115387,272.792938 141.535629,270.640717 
	C143.400833,268.982086 145.111938,267.150146 147.392105,264.894073 
M338.740356,235.794983 
	C336.239990,232.850510 336.118652,229.987061 339.548523,227.809937 
	C343.550415,225.269699 347.304260,227.399338 350.789490,233.804459 
	C354.131561,233.804459 357.400879,233.804459 360.705322,233.804459 
	C358.581207,221.343506 347.056396,215.607910 334.773102,220.696350 
	C329.406708,222.919434 326.101776,226.697876 325.913391,232.758835 
	C325.723663,238.862808 328.741211,242.891312 334.198517,245.099289 
	C337.571991,246.464157 341.133026,247.358292 344.577576,248.556473 
	C349.529327,250.278976 351.472260,253.099579 350.130096,256.444489 
	C348.947449,259.391846 344.349548,261.099060 340.604919,259.414398 
	C338.636505,258.528809 337.222168,256.458649 335.465759,255.036865 
	C334.454193,254.218002 333.313202,253.163193 332.135803,253.025818 
	C329.533295,252.722137 326.870911,252.931335 324.107849,252.931335 
	C324.183136,254.010239 324.134033,254.688171 324.288666,255.315918 
	C326.629395,264.820129 336.625610,269.887787 348.341675,267.531891 
	C356.580078,265.875336 361.425507,261.113922 361.788544,254.318146 
	C362.141693,247.707611 358.020325,242.695663 350.121307,240.038986 
	C346.518066,238.827103 342.946686,237.520416 338.740356,235.794983 
M237.898361,266.943909 
	C243.792404,268.709259 249.283249,268.648041 253.631638,263.426636 
	C254.873383,267.546875 257.815155,268.261414 264.080200,266.348480 
	C264.080200,258.509735 264.182892,250.863708 264.051758,243.221695 
	C263.916229,235.323334 260.732086,231.411758 253.770416,230.142456 
	C244.688599,228.486588 236.620056,231.569107 233.911926,237.857620 
	C233.307114,239.262070 233.174866,240.870026 232.757782,242.675385 
	C236.396378,242.675385 239.367020,242.675385 242.708588,242.675385 
	C243.609985,239.028427 245.637039,236.249863 249.970398,237.416992 
	C253.715042,238.425552 253.743729,241.381546 253.224121,244.113174 
	C248.284653,245.067322 243.646866,245.596268 239.246170,246.915939 
	C234.799561,248.249420 231.962402,251.485428 231.575836,256.377869 
	C231.210815,260.997528 233.081879,264.433777 237.898361,266.943909 
M312.817963,258.029602 
	C312.817963,251.450195 312.817963,244.870773 312.817963,238.051407 
	C315.035492,237.921631 317.305908,237.788757 319.726288,237.647125 
	C319.726288,235.339417 319.726288,233.295639 319.726288,230.916275 
	C317.151794,230.916275 314.865082,230.916275 312.198547,230.916275 
	C312.198547,227.793167 312.198547,225.010254 312.198547,222.140610 
	C308.551270,222.140610 305.288300,222.140610 301.869019,222.140610 
	C301.726990,225.136551 301.596344,227.892242 301.459930,230.769989 
	C299.563507,230.939041 297.960785,231.081909 296.265656,231.233002 
	C296.265656,233.460129 296.265656,235.386627 296.265656,237.428833 
	C298.152985,237.760468 299.869873,238.062164 301.740479,238.390854 
	C301.740479,245.186691 301.609863,251.684525 301.775635,258.174805 
	C301.956635,265.262238 304.414032,267.633789 311.576324,267.860931 
	C314.009583,267.938080 316.455505,267.614532 319.071655,267.463959 
	C319.071655,265.012878 319.071655,263.079010 319.071655,261.474609 
	C316.924500,260.535950 315.029938,259.707703 312.817963,258.029602 
M289.212494,239.168182 
	C291.111450,238.881973 293.010406,238.595764 294.743225,238.334610 
	C294.743225,235.316040 294.743225,232.713898 294.743225,229.453827 
	C292.146301,230.050995 289.724609,230.137756 287.828217,231.180145 
	C286.039734,232.163193 284.804230,234.152206 283.150696,235.881485 
	C283.015076,234.016373 282.908234,232.547073 282.800171,231.060989 
	C279.203217,231.060989 275.806396,231.060989 272.436554,231.060989 
	C272.436554,243.113342 272.436554,254.849609 272.436554,266.670044 
	C276.065704,266.670044 279.429535,266.670044 283.037811,266.670044 
	C283.037811,260.862091 282.914490,255.391510 283.077423,249.929459 
	C283.204315,245.676498 284.005615,241.599411 289.212494,239.168182 
M105.408203,235.823837 
	C101.430405,235.847977 97.441162,235.692490 93.477890,235.944809 
	C89.175858,236.218674 86.987846,238.786163 86.886971,243.100357 
	C86.784683,247.474762 89.262466,250.767532 93.391136,250.941589 
	C99.347725,251.192673 105.329681,251.179306 111.287598,250.944138 
	C115.340599,250.784164 118.209846,247.293304 117.973862,243.178085 
	C117.737465,239.055573 115.663216,236.360962 111.337860,235.924484 
	C109.695023,235.758713 108.026268,235.849792 105.408203,235.823837 
M86.194435,219.980743 
	C86.560020,215.372437 85.263390,211.342255 81.563232,208.462723 
	C78.261177,205.892990 74.657104,206.004807 71.545364,208.772415 
	C68.434242,211.539490 67.452240,215.517395 70.174721,218.585983 
	C75.016136,224.042969 80.629341,228.815216 86.194328,234.136429 
	C86.194328,229.500854 86.194328,225.191772 86.194435,219.980743 
M78.649307,257.150269 
	C75.873871,260.023468 72.508179,262.548553 70.534645,265.894684 
	C69.261375,268.053558 68.915535,272.166718 70.177856,274.040955 
	C71.606087,276.161469 75.401711,277.971832 77.984207,277.752655 
	C82.778519,277.345795 85.487656,273.232300 85.910301,268.731995 
	C86.476234,262.705933 86.050369,256.586700 86.050369,248.846100 
	C83.108459,252.172989 81.128975,254.411514 78.649307,257.150269 
M162.244644,221.260025 
	C163.488052,222.393555 164.731445,223.527100 166.675400,225.299286 
	C166.675400,219.486450 166.853226,214.873367 166.621582,210.280945 
	C166.420380,206.292099 163.525970,203.994232 159.967041,204.857864 
	C156.317215,205.743561 154.384811,208.480270 155.796509,211.900452 
	C157.125687,215.120758 159.708160,217.823776 162.244644,221.260025 
M155.522461,275.690369 
	C155.447067,279.123230 156.828171,282.046417 160.406525,281.799377 
	C162.487198,281.655731 165.888824,279.493896 166.134018,277.856506 
	C166.888458,272.818115 166.408936,267.594940 166.408936,262.443573 
	C165.861557,262.228455 165.314178,262.013336 164.766800,261.798218 
	C161.732071,266.185730 158.697342,270.573242 155.522461,275.690369 
M375.258972,246.500671 
	C376.831909,243.638382 376.707123,240.666779 373.848022,239.143951 
	C372.193695,238.262817 368.973175,238.309021 367.643585,239.392853 
	C366.291687,240.494843 365.636322,243.537369 366.024597,245.457336 
	C366.783295,249.208939 370.463593,249.742371 375.258972,246.500671 
z"/>
<path fill="#4D2250" opacity="1.000000" stroke="none" 
	d="
M173.018982,262.837158 
	C173.018951,248.404785 173.018951,234.454666 173.018951,220.247528 
	C178.640961,220.247528 183.907776,220.247528 189.795181,220.247528 
	C192.759064,231.597656 195.791626,243.210739 198.824188,254.823822 
	C199.124969,254.819382 199.425735,254.814957 199.726517,254.810532 
	C202.692947,243.380722 205.659363,231.950912 208.687820,220.282074 
	C214.053482,220.282074 219.286423,220.282074 224.794006,220.282074 
	C224.794006,235.710281 224.794006,251.098373 224.794006,266.750244 
	C221.471649,266.750244 218.210495,266.750244 214.376526,266.750244 
	C214.376526,256.918213 214.376526,247.064301 214.376526,237.210358 
	C214.009430,237.160431 213.642334,237.110504 213.275253,237.060577 
	C210.417664,246.992081 207.560074,256.923615 204.712204,266.821350 
	C200.757477,266.821350 197.127853,266.821350 193.341339,266.821350 
	C190.388336,256.568024 187.473404,246.446991 184.558487,236.325943 
	C184.335419,236.364761 184.112350,236.403564 183.889282,236.442383 
	C183.889282,246.367615 183.889282,256.292847 183.889282,266.139191 
	C176.358551,268.217987 173.449814,267.422882 173.018982,262.837158 
z"/>
<path fill="#4C214F" opacity="1.000000" stroke="none" 
	d="
M147.141830,265.144653 
	C145.111938,267.150146 143.400833,268.982086 141.535629,270.640717 
	C139.115387,272.792938 136.390930,273.160339 133.922134,270.872406 
	C131.260757,268.406006 131.326340,265.456207 133.775436,262.926361 
	C138.043808,258.517334 142.525864,254.315170 147.959045,249.010101 
	C140.899368,249.010101 135.185074,248.917313 129.475479,249.041275 
	C125.365837,249.130478 122.318352,247.627838 122.324181,243.313736 
	C122.330193,238.868256 125.601479,237.690247 129.613602,237.776276 
	C135.081894,237.893539 140.554596,237.805527 147.391830,237.805527 
	C143.702972,234.026169 140.866669,231.117416 138.026886,228.212067 
	C136.629456,226.782364 135.181625,225.399094 133.834610,223.923599 
	C131.622437,221.500381 131.196045,218.763992 133.514893,216.320267 
	C135.759964,213.954315 138.782669,213.676117 141.139603,215.946472 
	C149.295685,223.802902 157.373367,231.750870 165.206543,239.926834 
	C167.872101,242.709015 166.556992,245.792282 164.031097,248.305237 
	C158.478897,253.828949 152.937759,259.363770 147.141830,265.144653 
z"/>
<path fill="#4C214F" opacity="1.000000" stroke="none" 
	d="
M339.050598,236.025848 
	C342.946686,237.520416 346.518066,238.827103 350.121307,240.038986 
	C358.020325,242.695663 362.141693,247.707611 361.788544,254.318146 
	C361.425507,261.113922 356.580078,265.875336 348.341675,267.531891 
	C336.625610,269.887787 326.629395,264.820129 324.288666,255.315918 
	C324.134033,254.688171 324.183136,254.010239 324.107849,252.931335 
	C326.870911,252.931335 329.533295,252.722137 332.135803,253.025818 
	C333.313202,253.163193 334.454193,254.218002 335.465759,255.036865 
	C337.222168,256.458649 338.636505,258.528809 340.604919,259.414398 
	C344.349548,261.099060 348.947449,259.391846 350.130096,256.444489 
	C351.472260,253.099579 349.529327,250.278976 344.577576,248.556473 
	C341.133026,247.358292 337.571991,246.464157 334.198517,245.099289 
	C328.741211,242.891312 325.723663,238.862808 325.913391,232.758835 
	C326.101776,226.697876 329.406708,222.919434 334.773102,220.696350 
	C347.056396,215.607910 358.581207,221.343506 360.705322,233.804459 
	C357.400879,233.804459 354.131561,233.804459 350.789490,233.804459 
	C347.304260,227.399338 343.550415,225.269699 339.548523,227.809937 
	C336.118652,229.987061 336.239990,232.850510 339.050598,236.025848 
z"/>
<path fill="#4D2250" opacity="1.000000" stroke="none" 
	d="
M237.539062,266.789032 
	C233.081879,264.433777 231.210815,260.997528 231.575836,256.377869 
	C231.962402,251.485428 234.799561,248.249420 239.246170,246.915939 
	C243.646866,245.596268 248.284653,245.067322 253.224121,244.113174 
	C253.743729,241.381546 253.715042,238.425552 249.970398,237.416992 
	C245.637039,236.249863 243.609985,239.028427 242.708588,242.675385 
	C239.367020,242.675385 236.396378,242.675385 232.757782,242.675385 
	C233.174866,240.870026 233.307114,239.262070 233.911926,237.857620 
	C236.620056,231.569107 244.688599,228.486588 253.770416,230.142456 
	C260.732086,231.411758 263.916229,235.323334 264.051758,243.221695 
	C264.182892,250.863708 264.080200,258.509735 264.080200,266.348480 
	C257.815155,268.261414 254.873383,267.546875 253.631638,263.426636 
	C249.283249,268.648041 243.792404,268.709259 237.539062,266.789032 
M249.555511,260.059357 
	C253.316467,258.278503 253.814865,255.142776 253.483215,251.553879 
	C246.625275,250.685471 242.340347,252.505356 242.523529,256.242828 
	C242.719879,260.249725 245.476288,260.887909 249.555511,260.059357 
z"/>
<path fill="#4B204E" opacity="1.000000" stroke="none" 
	d="
M312.976654,258.454529 
	C315.029938,259.707703 316.924500,260.535950 319.071655,261.474609 
	C319.071655,263.079010 319.071655,265.012878 319.071655,267.463959 
	C316.455505,267.614532 314.009583,267.938080 311.576324,267.860931 
	C304.414032,267.633789 301.956635,265.262238 301.775635,258.174805 
	C301.609863,251.684525 301.740479,245.186691 301.740479,238.390854 
	C299.869873,238.062164 298.152985,237.760468 296.265656,237.428833 
	C296.265656,235.386627 296.265656,233.460129 296.265656,231.233002 
	C297.960785,231.081909 299.563507,230.939041 301.459930,230.769989 
	C301.596344,227.892242 301.726990,225.136551 301.869019,222.140610 
	C305.288300,222.140610 308.551270,222.140610 312.198547,222.140610 
	C312.198547,225.010254 312.198547,227.793167 312.198547,230.916275 
	C314.865082,230.916275 317.151794,230.916275 319.726288,230.916275 
	C319.726288,233.295639 319.726288,235.339417 319.726288,237.647125 
	C317.305908,237.788757 315.035492,237.921631 312.817963,238.051407 
	C312.817963,244.870773 312.817963,251.450195 312.976654,258.454529 
z"/>
<path fill="#4D2250" opacity="1.000000" stroke="none" 
	d="
M288.834595,239.331909 
	C284.005615,241.599411 283.204315,245.676498 283.077423,249.929459 
	C282.914490,255.391510 283.037811,260.862091 283.037811,266.670044 
	C279.429535,266.670044 276.065704,266.670044 272.436554,266.670044 
	C272.436554,254.849609 272.436554,243.113342 272.436554,231.060989 
	C275.806396,231.060989 279.203217,231.060989 282.800171,231.060989 
	C282.908234,232.547073 283.015076,234.016373 283.150696,235.881485 
	C284.804230,234.152206 286.039734,232.163193 287.828217,231.180145 
	C289.724609,230.137756 292.146301,230.050995 294.743225,229.453827 
	C294.743225,232.713898 294.743225,235.316040 294.743225,238.334610 
	C293.010406,238.595764 291.111450,238.881973 288.834595,239.331909 
z"/>
<path fill="#4B204E" opacity="1.000000" stroke="none" 
	d="
M105.888763,235.823822 
	C108.026268,235.849792 109.695023,235.758713 111.337860,235.924484 
	C115.663216,236.360962 117.737465,239.055573 117.973862,243.178085 
	C118.209846,247.293304 115.340599,250.784164 111.287598,250.944138 
	C105.329681,251.179306 99.347725,251.192673 93.391136,250.941589 
	C89.262466,250.767532 86.784683,247.474762 86.886971,243.100357 
	C86.987846,238.786163 89.175858,236.218674 93.477890,235.944809 
	C97.441162,235.692490 101.430405,235.847977 105.888763,235.823822 
z"/>
<path fill="#030303" opacity="1.000000" stroke="none" 
	d="
M86.194382,220.431717 
	C86.194328,225.191772 86.194328,229.500854 86.194328,234.136429 
	C80.629341,228.815216 75.016136,224.042969 70.174721,218.585983 
	C67.452240,215.517395 68.434242,211.539490 71.545364,208.772415 
	C74.657104,206.004807 78.261177,205.892990 81.563232,208.462723 
	C85.263390,211.342255 86.560020,215.372437 86.194382,220.431717 
z"/>
<path fill="#070707" opacity="1.000000" stroke="none" 
	d="
M78.899399,256.900146 
	C81.128975,254.411514 83.108459,252.172989 86.050369,248.846100 
	C86.050369,256.586700 86.476234,262.705933 85.910301,268.731995 
	C85.487656,273.232300 82.778519,277.345795 77.984207,277.752655 
	C75.401711,277.971832 71.606087,276.161469 70.177856,274.040955 
	C68.915535,272.166718 69.261375,268.053558 70.534645,265.894684 
	C72.508179,262.548553 75.873871,260.023468 78.899399,256.900146 
z"/>
<path fill="#39B6EC" opacity="1.000000" stroke="none" 
	d="
M161.991943,221.007202 
	C159.708160,217.823776 157.125687,215.120758 155.796509,211.900452 
	C154.384811,208.480270 156.317215,205.743561 159.967041,204.857864 
	C163.525970,203.994232 166.420380,206.292099 166.621582,210.280945 
	C166.853226,214.873367 166.675400,219.486450 166.675400,225.299286 
	C164.731445,223.527100 163.488052,222.393555 161.991943,221.007202 
z"/>
<path fill="#E33169" opacity="1.000000" stroke="none" 
	d="
M155.592529,275.325562 
	C158.697342,270.573242 161.732071,266.185730 164.766800,261.798218 
	C165.314178,262.013336 165.861557,262.228455 166.408936,262.443573 
	C166.408936,267.594940 166.888458,272.818115 166.134018,277.856506 
	C165.888824,279.493896 162.487198,281.655731 160.406525,281.799377 
	C156.828171,282.046417 155.447067,279.123230 155.592529,275.325562 
z"/>
<path fill="#E33169" opacity="1.000000" stroke="none" 
	d="
M375.028809,246.826218 
	C370.463593,249.742371 366.783295,249.208939 366.024597,245.457336 
	C365.636322,243.537369 366.291687,240.494843 367.643585,239.392853 
	C368.973175,238.309021 372.193695,238.262817 373.848022,239.143951 
	C376.707123,240.666779 376.831909,243.638382 375.028809,246.826218 
z"/>
<path fill="#FFFFFF" opacity="1.000000" stroke="none" 
	d="
M249.199768,260.141113 
	C245.476288,260.887909 242.719879,260.249725 242.523529,256.242828 
	C242.340347,252.505356 246.625275,250.685471 253.483215,251.553879 
	C253.814865,255.142776 253.316467,258.278503 249.199768,260.141113 
z"/>
</svg>